<svg xmlns="http://www.w3.org/2000/svg" width="318" height="800" fill="none" viewBox="0 0 318 800">
  <path fill="#fff" fill-rule="evenodd" d="M168.301 302.342a8.769 8.769 0 1 1-17.538 0 8.769 8.769 0 0 1 17.538 0ZM166.934 499.3a8.769 8.769 0 1 1-17.068 4.03 8.769 8.769 0 0 1 17.068-4.03Zm85.251-141.11a8.77 8.77 0 1 0-13.495-11.204 8.77 8.77 0 0 0 13.495 11.204ZM74.734 442.648a8.77 8.77 0 1 1-4.54 16.939 8.77 8.77 0 0 1 4.54-16.939Zm.551-82.555a8.77 8.77 0 1 0-4.54-16.939 8.77 8.77 0 0 0 4.54 16.939Zm165.918 42.499c-18.356-26.084-48.75-43.176-83.083-43.176-33.145 0-62.573 15.829-81.078 40.427.966-44.44 37.381-80.186 82.044-80.186 45.331 0 82.117 36.786 82.117 82.118v.817Zm-81.077 41.542c-34.333 0-64.728-17.092-83.084-43.177v.818c0 45.332 36.786 82.117 82.118 82.117 44.663 0 81.077-35.745 82.043-80.185-18.504 24.524-47.933 40.427-81.077 40.427Zm90.894 1.773a8.77 8.77 0 1 1-12.401 12.4 8.77 8.77 0 0 1 12.401-12.4Zm-91.935-10.988c18.281 0 33.144-14.863 33.144-33.144 0-17.91-14.268-32.55-32.029-33.144 9.661 7.431 15.829 19.098 15.829 32.178 0 13.822-6.912 26.084-17.539 33.441-9.958-7.431-16.423-19.247-16.423-32.624 0-13.599 6.688-25.638 16.944-32.995-18.282 0-33.145 14.862-33.145 33.144.075 18.281 14.938 33.144 33.219 33.144Zm.818-66.511c.093.074.186.148.297.222-.371 0-.743 0-1.189-.074.157-.052.276-.141.411-.24a3.41 3.41 0 0 1 .184-.131c.111.074.204.148.297.223Z" clip-rule="evenodd"/>
  <path fill="#fff" d="M143.54 128.106c-6.857 0-12.437 5.58-12.437 12.437v12.011h-12.012c-6.856 0-12.437 5.581-12.437 12.437 0 6.856 5.581 12.437 12.437 12.437H155.977v-36.885c0-6.857-5.528-12.437-12.437-12.437ZM199.223 152.554h-12.011v-12.011c0-6.857-5.581-12.437-12.437-12.437-6.856 0-12.437 5.58-12.437 12.437v36.885h36.885c6.857 0 12.437-5.581 12.437-12.437 0-6.856-5.58-12.437-12.437-12.437ZM143.54 233.111c-6.857 0-12.437-5.58-12.437-12.437v-12.011h-12.012c-6.856 0-12.437-5.581-12.437-12.437 0-6.856 5.581-12.437 12.437-12.437H155.977v36.885c0 6.857-5.528 12.437-12.437 12.437ZM199.223 208.663h-12.011v12.011c0 6.857-5.581 12.437-12.437 12.437-6.856 0-12.437-5.58-12.437-12.437v-36.885h36.885c6.857 0 12.437 5.581 12.437 12.437 0 6.909-5.58 12.437-12.437 12.437Z"/>
  <path fill="#fff" d="M113.885 98.011c-6.856 0-12.436 5.581-12.436 12.437v12.012H89.437C82.58 122.46 77 128.04 77 134.897c0 6.856 5.58 12.436 12.437 12.436H126.322V110.448c0-6.856-5.527-12.437-12.437-12.437ZM240.978 134.897c0-6.857-5.338-12.437-11.897-12.437h-11.489v-12.012c0-6.856-5.338-12.437-11.896-12.437-6.558 0-11.896 5.581-11.896 12.437V147.333H229.081c6.559 0 11.897-5.58 11.897-12.436ZM229.685 238.659h-12.011v12.024c0 6.864-5.581 12.451-12.437 12.451-6.857 0-12.437-5.587-12.437-12.451v-36.872h36.885c6.856 0 12.437 5.587 12.437 12.451 0 6.863-5.581 12.397-12.437 12.397ZM100.449 250.697v-12.012H88.437c-6.856 0-12.437-5.581-12.437-12.437 0-6.856 5.58-12.437 12.437-12.437H125.322V250.697c0 6.856-5.58 12.437-12.437 12.437-6.856 0-12.436-5.581-12.436-12.437ZM184.538 86.617c-4.711-4.823-12.372-4.823-17.135 0l-8.282 8.479-8.283-8.48c-4.71-4.822-12.372-4.822-17.134 0-4.711 4.823-4.711 12.666 0 17.542l8.282 8.479 17.135 17.541 17.134-17.541 8.283-8.479c4.711-4.823 4.711-12.666 0-17.541ZM167.491 273.538l-8.589-8.287-8.59 8.287c-4.885 4.713-12.83 4.713-17.769 0-4.885-4.713-4.885-12.378 0-17.143l8.59-8.286 17.769-17.142 17.769 17.142 8.589 8.286c4.885 4.713 4.885 12.378 0 17.143-4.939 4.713-12.884 4.713-17.769 0ZM252.301 206.343c4.932-4.882 4.932-12.822 0-17.757l-8.672-8.584 8.672-8.583c4.932-4.882 4.932-12.822 0-17.758-4.932-4.881-12.953-4.881-17.94 0l-8.671 8.584-17.94 17.757 17.94 17.757 8.671 8.584c4.987 4.935 13.008 4.935 17.94 0ZM64.699 188.612l8.672-8.59-8.672-8.589c-4.932-4.885-4.932-12.83 0-17.769 4.932-4.885 12.953-4.885 17.94 0l8.671 8.589 17.94 17.769-17.94 17.769-8.671 8.59c-4.932 4.885-12.954 4.885-17.94 0-4.932-4.886-4.932-12.831 0-17.769Z"/>
  <path fill="#fff" fill-rule="evenodd" d="M116.392 523.077h85.568c6.99 6.99 12.897 12.906 18.485 18.503 10.319 10.335 19.551 19.582 32.508 32.49v85.569l-50.993 50.993h-85.568l-50.994-50.993V574.07l50.994-50.993Zm104.785 157.746 1.967-1.967-12.181-12.181v-99.641l12.181-12.181-1.967-1.967-12.181 12.181h-99.641l-12.18-12.181-1.968 1.967 12.181 12.181v99.641l-12.18 12.181 1.967 1.967 12.18-12.181h99.641l12.181 12.181Zm-48.724-112.805 16.796 16.795 1.967 1.968 16.644 16.644v26.859l-16.644 16.644-1.967 1.967-16.796 16.796h-26.859l-16.644-16.644-1.967-1.967-16.796-16.796v-26.859l16.796-16.796 1.967-1.967 16.644-16.644h26.859Zm29.355 50.009v-2.345h-28.977l-5.296-5.296-1.967-1.967-5.447-5.448v-28.977h-2.346v28.977l-5.296 5.296-1.967 1.967-5.447 5.448h-28.977v2.345h28.977l5.447 5.447 1.967 1.968 5.296 5.296v28.976h2.346v-28.976l5.447-5.448 1.967-1.967 5.296-5.296h28.977Z" clip-rule="evenodd"/>
  <path fill="#fff" d="M159.5 742a8.5 8.5 0 1 0-.001-17.001A8.5 8.5 0 0 0 159.5 742Z"/>
</svg>
